<?xml version="1.0" standalone="no"?>
<!DOCTYPE svg PUBLIC "-//W3C//DTD SVG 20010904//EN"
 "http://www.w3.org/TR/2001/REC-SVG-20010904/DTD/svg10.dtd">
<svg version="1.0" xmlns="http://www.w3.org/2000/svg"
 width="354.000000pt" height="388.000000pt" viewBox="0 0 354.000000 388.000000"
 preserveAspectRatio="xMidYMid meet">

<g transform="translate(0.000000,388.000000) scale(0.100000,-0.100000)"
fill="#000000" stroke="none">
<path d="M0 1940 l0 -1940 1770 0 1770 0 0 1940 0 1940 -1770 0 -1770 0 0
-1940z m871 1861 c70 -44 271 -248 306 -311 56 -97 55 -99 -29 -188 -123 -132
-175 -254 -185 -432 -6 -127 12 -219 60 -298 61 -102 160 -159 327 -189 47 -8
92 -18 100 -23 8 -4 38 -65 66 -136 52 -128 52 -129 33 -150 -12 -13 -19 -35
-19 -61 0 -53 34 -83 92 -83 75 0 115 82 69 141 -18 24 -18 25 30 148 55 140
62 151 96 151 49 0 179 33 238 60 117 54 188 146 216 278 19 92 7 262 -25 349
-43 117 -107 214 -181 277 -25 20 -45 44 -45 53 0 8 17 47 37 85 54 103 317
358 369 358 27 0 44 -47 52 -141 17 -221 -30 -424 -128 -554 l-48 -64 31 -88
c27 -77 31 -105 35 -219 5 -148 -5 -212 -47 -300 -53 -112 -173 -205 -301
-234 -30 -7 -58 -14 -62 -17 -4 -2 13 -34 37 -70 95 -142 141 -325 132 -523
-3 -63 -13 -142 -22 -174 -8 -32 -13 -61 -10 -64 3 -3 27 -6 54 -6 84 0 141
62 141 153 0 22 -16 106 -36 188 -30 120 -35 159 -31 209 12 127 81 248 179
314 75 50 111 61 221 67 194 12 350 -77 428 -241 16 -34 29 -74 29 -90 0 -26
-2 -28 -27 -22 -177 38 -289 2 -341 -112 -25 -55 -25 -58 -19 -231 10 -270
-19 -367 -148 -497 -108 -109 -223 -154 -392 -154 -51 0 -93 3 -93 6 0 4 14
22 30 41 18 20 30 45 30 62 0 31 -30 75 -63 92 -20 11 -20 11 1 -16 34 -43 30
-105 -10 -144 -57 -56 -167 -73 -246 -37 -35 16 -48 17 -86 7 -70 -17 -201
-10 -223 13 -4 3 2 23 11 45 25 54 6 104 -48 133 -17 9 -17 8 2 -20 45 -62 17
-138 -65 -177 -54 -26 -147 -24 -201 4 -44 22 -82 71 -82 104 0 38 31 84 73
107 23 13 43 24 45 25 1 1 -13 35 -33 76 -61 129 -78 213 -78 384 0 122 4 165
22 230 24 90 75 203 121 269 16 25 27 47 23 49 -5 2 -33 10 -63 17 -152 35
-267 137 -322 285 -19 52 -22 81 -22 215 -1 149 1 158 32 249 l32 93 -35 44
c-110 134 -168 400 -135 622 9 64 22 92 44 92 7 0 32 -13 57 -29z m897 -326
c171 -40 310 -150 378 -298 36 -81 25 -91 -24 -21 -50 70 -133 141 -208 178
-182 89 -422 87 -597 -6 -71 -38 -184 -141 -212 -192 -25 -47 -36 -46 -23 2
17 63 45 109 108 176 68 72 179 137 277 160 77 19 223 19 301 1z m-493 -734
c22 -10 66 -46 98 -80 77 -80 70 -91 -55 -91 -112 0 -141 12 -206 86 -49 55
-61 82 -45 97 15 15 168 7 208 -12z m902 8 c9 -9 9 -18 -2 -38 -19 -37 -118
-129 -146 -136 -13 -3 -64 -5 -114 -3 -82 3 -90 5 -93 24 -3 24 100 127 150
149 40 17 189 20 205 4z m-1423 -2070 c39 -18 47 -53 44 -184 l-3 -120 -110
-20 -110 -20 -3 -73 -3 -72 -69 0 -70 0 0 223 c0 233 1 242 45 265 27 15 247
15 279 1z m429 -1 c45 -23 46 -32 47 -265 l0 -223 -185 0 -185 0 0 223 c1 231
2 240 45 265 27 15 249 16 278 0z m235 -31 l3 -38 30 40 29 41 74 0 c41 0 77
-4 80 -8 2 -4 -23 -50 -56 -101 -33 -51 -58 -94 -55 -97 2 -2 28 1 57 7 32 7
55 8 61 2 5 -5 8 -74 7 -154 l-3 -144 -70 0 -70 0 -3 69 c-3 65 -4 68 -25 62
-12 -3 -30 -6 -39 -6 -14 0 -18 -12 -20 -62 l-3 -63 -70 0 -70 0 0 223 0 224
29 24 c22 20 37 24 70 22 40 -3 41 -4 44 -41z m613 14 c23 -23 29 -39 29 -70
l0 -41 -115 0 c-115 0 -115 0 -115 -24 0 -22 2 -23 38 -16 20 4 52 10 70 14
l32 6 0 -74 0 -74 -70 -12 c-48 -8 -70 -16 -70 -26 0 -11 23 -14 115 -14 l116
0 -3 -67 -3 -68 -185 0 -185 0 -3 190 c-3 218 0 248 33 281 23 23 30 24 155
24 l132 0 29 -29z m410 0 l29 -29 0 -195 0 -195 -31 -26 c-30 -26 -33 -26
-185 -26 l-154 0 0 250 0 250 156 0 156 0 29 -29z m406 14 c25 -17 49 -85 40
-109 -5 -13 -26 -16 -117 -16 -105 0 -110 -1 -110 -21 0 -20 3 -21 58 -14 31
4 62 8 67 8 6 1 10 -27 10 -67 0 -78 5 -73 -97 -90 -24 -4 -38 -12 -38 -21 0
-12 20 -15 110 -15 l110 0 0 -70 0 -70 -185 0 -185 0 0 221 0 221 29 29 29 29
129 0 c99 0 134 -3 150 -15z m258 -21 c11 -18 25 -40 31 -50 10 -17 14 -13 38
34 l26 52 80 0 c48 0 80 -4 80 -10 0 -6 -30 -62 -66 -125 l-65 -115 65 -116
c36 -63 66 -120 66 -125 0 -5 -36 -9 -80 -9 l-80 0 -25 50 c-14 28 -27 50 -30
50 -2 0 -16 -22 -31 -50 l-27 -50 -79 0 c-43 0 -78 4 -78 9 0 4 30 61 66 125
l65 116 -65 116 c-36 64 -66 121 -66 126 0 5 35 8 77 6 74 -3 78 -4 98 -34z"/>
<path d="M2504 2207 c-68 -33 -119 -80 -155 -141 -36 -64 -36 -76 0 -76 20 0
36 -9 49 -25 15 -18 29 -25 55 -25 26 0 41 -7 55 -25 13 -16 30 -25 48 -25 15
0 36 -8 47 -17 13 -12 21 -14 24 -6 2 6 18 32 35 57 57 87 155 133 263 124 34
-3 55 -1 55 6 0 21 -101 105 -165 137 -61 30 -79 34 -164 37 -85 3 -102 0
-147 -21z"/>
<path d="M577 544 c-4 -4 -7 -20 -7 -36 0 -28 1 -29 38 -22 45 8 55 16 50 40
-2 14 -13 20 -38 22 -20 2 -39 0 -43 -4z"/>
<path d="M1030 531 c-24 -7 -25 -10 -28 -100 l-3 -93 38 7 c21 4 41 9 45 11 5
3 8 45 8 95 0 97 0 97 -60 80z"/>
<path d="M2258 533 c-16 -4 -18 -17 -18 -99 0 -102 -1 -100 59 -88 l31 7 0 93
0 94 -27 -1 c-16 -1 -36 -3 -45 -6z"/>
</g>
</svg>
