<?xml version="1.0" standalone="no"?>
<!DOCTYPE svg PUBLIC "-//W3C//DTD SVG 20010904//EN"
 "http://www.w3.org/TR/2001/REC-SVG-20010904/DTD/svg10.dtd">
<svg version="1.0" xmlns="http://www.w3.org/2000/svg"
 width="322.000000pt" height="268.000000pt" viewBox="0 0 322.000000 268.000000"
 preserveAspectRatio="xMidYMid meet">

<g transform="translate(0.000000,268.000000) scale(0.100000,-0.100000)"
fill="#000000" stroke="none">
<path d="M1440 2366 c-279 -62 -502 -258 -594 -522 -37 -105 -46 -229 -46
-619 l0 -355 -135 0 -135 0 0 -25 0 -25 1070 0 1070 0 0 25 0 25 -135 0 -135
0 0 393 c0 411 -5 476 -45 590 -70 201 -250 390 -452 472 -128 52 -333 70
-463 41z m393 -69 c221 -72 412 -263 485 -484 22 -67 26 -101 30 -243 2 -91 3
-176 1 -190 -3 -20 -20 4 -77 113 -41 76 -77 136 -80 132 -4 -3 -68 -126 -142
-273 -99 -195 -139 -266 -150 -263 -44 13 -100 5 -131 -18 l-32 -24 -48 26
c-58 33 -107 34 -165 5 l-44 -22 -44 22 c-54 27 -100 28 -151 2 -49 -25 -57
-25 -97 0 -43 26 -100 25 -154 -2 l-44 -22 -39 22 c-21 12 -48 22 -59 22 -30
0 -37 69 -37 360 1 224 2 252 23 325 57 200 206 377 397 471 123 61 190 74
350 70 107 -2 144 -8 208 -29z"/>
<path d="M1531 2023 l-94 -37 -81 13 c-137 21 -173 24 -180 13 -4 -7 26 -21
79 -38 48 -15 83 -30 78 -34 -4 -4 -58 -24 -119 -44 -91 -30 -116 -35 -138
-26 -33 12 -66 13 -66 2 0 -5 17 -18 39 -30 32 -18 40 -29 45 -62 4 -29 10
-38 20 -34 8 3 16 15 18 27 2 16 24 27 116 58 61 21 112 34 112 29 0 -5 -9
-29 -20 -54 -19 -46 -19 -46 1 -46 23 0 50 27 98 98 33 47 40 52 170 104 74
30 136 59 138 65 5 14 -15 21 -74 27 -39 5 -65 -1 -142 -31z"/>
<path d="M1496 1332 l-48 -98 26 -38 c14 -21 26 -44 26 -51 0 -9 11 -7 38 7
25 13 49 18 75 14 32 -4 40 -1 47 17 6 17 -4 45 -47 127 -30 58 -58 108 -62
112 -4 5 -29 -36 -55 -90z"/>
<path d="M500 670 c0 -15 7 -20 25 -20 24 0 25 -3 25 -55 0 -54 0 -55 30 -55
30 0 30 1 30 55 0 52 1 55 25 55 18 0 25 5 25 20 0 18 -7 20 -80 20 -73 0 -80
-2 -80 -20z"/>
<path d="M720 615 c0 -73 1 -75 25 -75 16 0 25 6 25 15 0 8 4 15 9 15 5 0 14
-7 21 -15 7 -8 23 -15 37 -15 21 0 22 2 12 21 -8 15 -8 24 0 32 17 17 13 62
-7 80 -12 11 -36 17 -70 17 l-52 0 0 -75z m88 18 c2 -8 -5 -13 -17 -13 -12 0
-21 6 -21 16 0 18 31 15 38 -3z"/>
<path d="M943 633 c-12 -32 -25 -66 -29 -75 -5 -15 0 -18 25 -18 17 0 31 5 31
10 0 6 11 10 24 10 14 0 28 -4 31 -10 7 -11 55 -14 55 -3 0 4 -12 38 -26 75
-24 64 -28 68 -57 68 -30 0 -34 -4 -54 -57z"/>
<path d="M1135 624 c32 -85 31 -84 65 -84 26 0 31 6 54 68 14 37 26 71 26 75
0 5 -12 7 -27 5 -21 -2 -29 -10 -37 -35 -12 -42 -22 -42 -36 2 -10 29 -16 35
-41 35 l-29 0 25 -66z"/>
<path d="M1340 615 l0 -75 65 0 c58 0 65 2 65 20 0 16 -7 20 -30 20 -16 0 -30
5 -30 10 0 6 14 10 30 10 20 0 30 5 30 15 0 10 -10 15 -29 15 -17 0 -33 5 -36
10 -4 6 8 10 29 10 29 0 36 4 36 20 0 18 -7 20 -65 20 l-65 0 0 -75z"/>
<path d="M1532 618 l3 -73 68 -3 c61 -3 67 -1 67 17 0 16 -8 20 -37 23 l-38 3
-3 53 c-3 50 -4 52 -33 52 l-30 0 3 -72z"/>
<path d="M1736 674 c-9 -8 -16 -22 -16 -29 0 -17 38 -45 62 -45 9 0 20 -5 24
-11 5 -8 -6 -9 -35 -4 -33 5 -42 4 -47 -10 -9 -23 12 -35 67 -35 55 0 82 17
77 50 -2 17 -12 27 -33 34 -62 18 -72 26 -33 24 43 -3 72 17 48 32 -24 16 -97
12 -114 -6z"/>
<path d="M1930 615 l0 -76 67 3 c55 2 68 6 71 21 3 14 -4 17 -32 17 -20 0 -36
5 -36 10 0 6 14 10 30 10 20 0 30 5 30 15 0 10 -10 15 -29 15 -17 0 -33 5 -36
10 -4 6 10 10 34 10 34 0 41 3 41 20 0 18 -7 20 -70 20 l-70 0 0 -75z"/>
<path d="M2130 615 c0 -73 1 -75 25 -75 21 0 25 5 25 30 0 17 4 30 9 30 6 0
18 -13 28 -30 13 -22 25 -30 45 -30 l28 0 0 75 c0 73 -1 75 -25 75 -20 0 -25
-5 -25 -24 0 -37 -17 -40 -36 -6 -14 22 -26 30 -46 30 l-28 0 0 -75z"/>
<path d="M2373 678 c-22 -29 -23 -38 -3 -58 11 -11 31 -20 45 -20 14 0 25 -5
25 -11 0 -7 -13 -8 -39 -4 -31 5 -40 3 -45 -11 -9 -22 -5 -25 43 -31 52 -7 88
2 101 27 13 25 -18 60 -54 60 -14 0 -28 5 -32 11 -4 7 6 10 30 8 39 -4 67 18
43 33 -19 12 -104 9 -114 -4z"/>
<path d="M2560 615 l0 -76 67 3 c55 2 68 6 71 21 3 14 -4 17 -32 17 -20 0 -36
5 -36 10 0 6 14 10 30 10 20 0 30 5 30 15 0 10 -10 15 -29 15 -44 0 -47 18 -4
22 27 2 39 8 41 21 3 15 -5 17 -67 17 l-71 0 0 -75z"/>
<path d="M530 425 l0 -25 1070 0 1070 0 0 25 0 25 -1070 0 -1070 0 0 -25z"/>
</g>
</svg>
