<?xml version="1.0" standalone="no"?>
<!DOCTYPE svg PUBLIC "-//W3C//DTD SVG 20010904//EN"
 "http://www.w3.org/TR/2001/REC-SVG-20010904/DTD/svg10.dtd">
<svg version="1.0" xmlns="http://www.w3.org/2000/svg"
 width="451.000000pt" height="363.000000pt" viewBox="0 0 451.000000 363.000000"
 preserveAspectRatio="xMidYMid meet">

<g transform="translate(0.000000,363.000000) scale(0.100000,-0.100000)"
fill="#000000" stroke="none">
<path d="M1991 3559 c-123 -17 -331 -74 -450 -124 -343 -145 -632 -394 -833
-717 -163 -263 -258 -597 -258 -908 1 -367 101 -701 298 -1000 449 -677 1302
-963 2075 -694 310 108 623 333 813 584 235 310 359 648 371 1015 14 397 -83
746 -295 1065 -258 389 -646 651 -1118 756 -103 23 -146 27 -324 30 -113 1
-238 -2 -279 -7z m549 -44 c120 -21 338 -93 455 -149 817 -398 1198 -1374 863
-2213 -161 -405 -484 -751 -871 -933 -247 -116 -432 -160 -712 -167 -211 -5
-354 11 -530 62 -824 239 -1360 1055 -1250 1902 103 780 712 1396 1495 1509
124 17 421 12 550 -11z"/>
<path d="M2010 3490 c-417 -57 -825 -279 -1084 -589 -261 -312 -405 -700 -406
-1086 0 -432 147 -831 423 -1146 145 -166 300 -286 499 -389 260 -134 496
-191 788 -191 280 0 522 56 761 176 140 70 201 109 309 196 312 249 525 597
610 995 40 188 38 479 -6 692 -41 202 -157 466 -282 642 -112 158 -307 342
-478 452 -156 100 -393 192 -604 233 -99 20 -428 29 -530 15z m158 -195 c2 -9
28 -58 58 -108 30 -49 53 -91 52 -92 -2 -1 -20 -6 -42 -9 -32 -6 -38 -5 -33 7
3 8 0 23 -7 33 -10 13 -23 16 -60 12 -54 -6 -54 -6 -59 -39 -3 -19 -11 -25
-35 -27 -18 -2 -32 -1 -32 2 0 3 18 51 40 106 22 55 40 107 40 115 0 7 12 16
28 18 38 6 47 3 50 -18z m350 -1 c12 -4 22 -11 22 -17 0 -23 84 -157 90 -145
4 7 12 39 19 71 7 31 14 57 16 57 2 0 15 -4 28 -9 l24 -9 -23 -89 c-13 -48
-24 -98 -24 -110 0 -16 -6 -23 -19 -23 -27 0 -51 10 -51 21 0 17 -88 160 -93
152 -3 -5 -11 -36 -18 -70 -12 -60 -14 -62 -38 -56 -14 3 -27 7 -29 8 -7 6 54
225 63 225 5 0 20 -3 33 -6z m-718 -58 c0 -14 53 -150 70 -179 9 -14 6 -19
-15 -27 -35 -13 -45 -13 -45 4 0 8 -10 36 -22 63 l-21 48 -12 -72 c-6 -40 -14
-75 -17 -78 -3 -3 -29 15 -58 40 -30 24 -55 43 -57 41 -5 -5 26 -88 39 -103
12 -15 12 -15 -22 -30 -25 -10 -26 -8 -67 96 -24 58 -43 108 -43 112 0 4 15
12 33 18 31 11 35 9 81 -34 27 -25 52 -45 57 -45 4 0 11 32 15 71 6 67 8 72
38 84 33 14 46 12 46 -9z m1221 -132 c19 -9 29 -21 25 -29 -3 -8 -8 -66 -12
-130 -4 -63 -9 -115 -11 -115 -2 0 -17 7 -33 15 -25 13 -28 19 -23 48 5 31 2
35 -42 58 l-46 24 -18 -21 c-16 -20 -20 -20 -44 -7 -15 7 -27 17 -27 21 1 4
42 34 92 67 50 33 93 65 95 72 6 16 8 16 44 -3z m-1639 -101 c10 -9 18 -23 18
-32 1 -9 15 -25 33 -36 61 -38 50 -83 -38 -153 -36 -29 -71 -55 -78 -57 -6 -2
-29 19 -49 48 -21 29 -53 69 -72 89 l-34 37 75 61 c80 63 112 73 145 43z m956
-53 c274 -25 532 -149 724 -348 96 -99 148 -172 205 -287 166 -330 165 -722
-2 -1049 -60 -117 -126 -205 -232 -307 -156 -150 -332 -246 -543 -296 -101
-24 -134 -27 -270 -26 -138 1 -168 4 -270 31 -216 56 -401 163 -552 320 -100
104 -156 183 -214 306 -86 182 -120 357 -111 566 7 157 38 284 105 425 63 132
112 203 211 307 214 227 490 349 826 366 11 1 66 -3 123 -8z m979 -77 c21 -10
49 -37 68 -67 30 -46 32 -52 17 -63 -23 -19 -42 -16 -42 6 0 24 -44 78 -71 86
-50 16 -108 -39 -95 -90 8 -33 52 -75 77 -75 27 0 23 15 -8 40 -25 20 -26 22
-9 38 17 16 20 14 60 -32 l42 -48 -29 -30 c-34 -33 -53 -32 -107 4 -95 65
-110 172 -31 225 40 27 80 29 128 6z m-2099 -243 c17 0 15 -11 -8 -38 l-19
-23 -83 70 c-46 39 -89 71 -96 71 -8 0 -5 10 9 29 l21 29 82 -69 c44 -37 87
-69 94 -69z m2392 -142 c47 -85 50 -94 34 -105 -10 -7 -20 -13 -23 -12 -3 0
-21 31 -40 70 -36 73 -37 74 -61 59 -13 -8 -11 -16 11 -59 l26 -49 -24 -11
c-27 -12 -40 -14 -30 -5 9 10 -31 84 -46 84 -6 0 -19 -5 -27 -10 -13 -8 -11
-17 14 -66 16 -31 36 -62 43 -70 11 -11 9 -15 -13 -27 l-27 -14 -49 101 c-27
55 -46 102 -41 103 4 2 49 25 98 52 50 27 93 50 97 50 3 1 29 -41 58 -91z
m-2507 -1 c16 -11 13 -20 -32 -106 -57 -106 -59 -109 -69 -95 -4 6 -47 32 -97
59 -49 27 -91 49 -93 50 -5 4 21 55 29 55 4 0 11 -5 14 -10 4 -6 38 -27 78
-46 81 -41 78 -43 119 51 12 30 26 55 29 55 3 0 13 -6 22 -13z m-90 -1402 c18
-17 12 -51 -10 -59 -40 -16 -72 42 -35 63 23 14 28 13 45 -4z m2485 3 c17 -17
15 -43 -4 -59 -31 -26 -70 25 -44 56 15 18 32 19 48 3z"/>
<path d="M2121 3217 c-6 -16 -11 -33 -11 -38 0 -11 21 -12 38 0 12 7 11 13 -1
37 l-15 29 -11 -28z"/>
<path d="M2944 3015 c-19 -15 -19 -15 0 -30 29 -22 36 -19 36 15 0 34 -7 37
-36 15z"/>
<path d="M1282 2939 c-46 -34 -49 -41 -27 -59 12 -10 22 -6 55 20 38 30 49 59
25 67 -6 2 -30 -11 -53 -28z"/>
<path d="M1342 2869 c-46 -34 -47 -36 -27 -63 13 -17 15 -17 50 10 45 34 58
57 43 72 -17 17 -19 16 -66 -19z"/>
<path d="M2118 2909 c-172 -15 -367 -86 -526 -193 -242 -162 -429 -461 -472
-755 -17 -113 -7 -321 19 -429 176 -708 957 -1065 1604 -734 318 162 541 469
598 822 38 238 -17 531 -139 735 -230 386 -636 594 -1084 554z m373 -52 c425
-110 733 -436 816 -866 21 -111 21 -311 -1 -408 -50 -230 -147 -406 -312 -568
-190 -188 -434 -297 -698 -311 -470 -26 -896 241 -1077 674 -46 111 -69 214
-78 347 -13 205 14 355 100 534 141 297 384 501 704 591 114 32 180 39 320 35
96 -3 155 -10 226 -28z"/>
<path d="M2148 2663 c-27 -4 -32 -12 -29 -40 2 -18 -14 -16 -29 2 -7 8 -17 12
-24 8 -6 -4 -18 -6 -28 -5 -9 2 -32 -3 -50 -11 -19 -8 -56 -15 -83 -15 -39 -1
-54 -7 -79 -31 -17 -16 -46 -36 -65 -46 -19 -9 -38 -29 -44 -46 -6 -16 -18
-29 -27 -29 -20 0 -40 -19 -40 -40 -1 -20 -67 -70 -94 -70 -12 0 -27 -10 -35
-22 -12 -19 -11 -23 4 -34 23 -17 13 -56 -17 -69 -29 -13 -35 -41 -13 -64 15
-17 14 -19 -5 -24 -19 -5 -21 -12 -18 -54 3 -44 1 -48 -20 -51 -13 -2 -25 -9
-27 -15 -8 -22 -13 -116 -6 -122 3 -4 6 -14 6 -23 0 -12 11 -18 40 -22 32 -4
41 -10 46 -30 13 -55 22 -71 38 -68 9 2 17 14 19 27 3 17 8 22 23 18 15 -4 23
1 30 21 6 15 13 22 17 16 4 -6 15 -13 25 -17 10 -4 17 -17 17 -32 0 -62 34
-81 80 -45 14 11 37 20 51 20 15 0 43 15 67 36 39 33 45 35 74 25 21 -8 35 -8
42 -1 16 16 56 12 56 -5 0 -8 9 -15 21 -15 11 0 36 -12 56 -27 l36 -27 -5
-154 c-3 -84 -10 -157 -14 -162 -5 -5 -36 -2 -69 5 -87 21 -212 19 -316 -6
-49 -11 -92 -25 -95 -31 -4 -7 -2 -8 4 -4 18 11 14 -6 -9 -39 -27 -40 -74
-135 -54 -111 8 11 15 23 15 28 0 4 5 8 10 8 6 0 10 -5 10 -11 0 -16 -36 -59
-44 -52 -3 4 -12 -1 -19 -11 -7 -10 -22 -16 -32 -14 -14 2 -29 -11 -53 -47
l-34 -50 350 -3 c334 -2 350 -3 367 -22 26 -28 110 -28 125 0 10 19 23 20 367
22 l356 3 -35 45 c-21 28 -43 46 -58 48 -14 2 -30 10 -37 19 -6 8 -16 13 -21
9 -4 -3 -18 16 -31 42 l-22 47 32 -35 31 -35 -23 40 c-12 22 -35 58 -50 80
-14 22 -27 45 -27 50 -2 32 -261 55 -367 32 -38 -8 -73 -12 -78 -8 -4 4 -12
34 -17 66 -5 32 -12 60 -16 64 -4 3 -4 -13 0 -36 3 -23 2 -44 -3 -47 -5 -3
-12 18 -17 47 l-8 52 -4 -47 c-2 -27 -8 -48 -14 -48 -14 0 -3 103 12 108 16 6
12 26 -10 45 -22 18 -27 71 -10 97 8 13 11 11 16 -7 4 -13 10 -23 15 -23 5 0
9 -10 9 -21 0 -18 -2 -19 -15 -9 -12 10 -15 10 -15 -4 0 -9 5 -16 11 -16 7 0
18 -8 25 -17 11 -15 13 -6 14 66 0 78 2 87 27 113 33 35 41 35 45 1 7 -62 127
-63 191 -2 34 33 30 32 77 20 19 -5 56 -11 83 -14 41 -4 47 -2 47 14 0 20 15
25 25 9 14 -23 105 -1 105 25 0 7 7 18 15 25 10 8 13 21 8 38 -3 15 -6 31 -5
37 0 5 3 37 6 70 2 33 6 67 8 75 2 9 -6 16 -18 18 -17 2 -23 12 -29 48 -4 28
-13 49 -26 57 -10 6 -19 20 -19 30 0 10 -7 20 -16 24 -11 4 -13 13 -9 33 5 23
2 29 -18 34 -21 5 -25 12 -25 45 -1 44 -16 81 -34 81 -6 0 -19 7 -29 16 -19
17 -39 11 -39 -12 0 -22 -18 -16 -22 8 -2 12 -9 24 -17 26 -10 3 -12 -1 -9
-15 6 -24 -8 -53 -25 -53 -8 0 -8 3 2 9 17 11 5 51 -15 51 -8 0 -14 5 -14 11
0 6 -8 18 -17 27 -16 16 -15 17 7 20 14 2 29 -3 36 -13 9 -12 13 -13 17 -3 4
10 8 10 16 -2 5 -8 12 -12 15 -9 3 3 -5 15 -17 27 -17 16 -38 23 -73 24 -27 1
-59 8 -72 16 -17 11 -29 12 -46 4 -27 -12 -75 -5 -98 15 -11 10 -30 14 -55 11
-35 -4 -86 12 -98 33 -4 5 -9 8 -13 8 -4 -1 -19 -4 -34 -6z m58 -48 c-16 -16
-58 -14 -51 3 3 7 5 17 5 22 0 5 13 3 29 -3 21 -8 26 -13 17 -22z m-31 -105
c5 -8 12 -7 22 1 11 10 16 10 22 0 6 -8 23 -11 54 -8 30 4 52 1 65 -9 11 -8
27 -11 36 -8 23 9 20 -22 -4 -46 -11 -11 -22 -20 -24 -20 -8 0 -1 35 9 42 6 4
-3 8 -18 8 -16 0 -26 -4 -22 -9 3 -5 1 -12 -4 -16 -5 -3 -14 2 -19 11 -8 14
-15 15 -39 7 -22 -8 -34 -7 -47 3 -10 7 -24 10 -31 7 -8 -2 -22 0 -32 6 -16 9
-17 10 -1 11 11 0 15 5 12 15 -7 17 11 21 21 5z m-355 -4 c0 -3 -4 -8 -10 -11
-5 -3 -10 -1 -10 4 0 6 5 11 10 11 6 0 10 -2 10 -4z m279 -17 c12 -12 20 -23
17 -26 -3 -3 -12 2 -21 11 -9 9 -21 16 -26 16 -5 0 -9 5 -9 10 0 16 14 12 39
-11z m-144 -9 c3 -5 -1 -10 -9 -10 -9 0 -16 5 -16 10 0 6 4 10 9 10 6 0 13 -4
16 -10z m120 -40 c-3 -5 -11 -10 -16 -10 -6 0 -7 5 -4 10 3 6 11 10 16 10 6 0
7 -4 4 -10z m60 -10 c-3 -5 -11 -10 -16 -10 -6 0 -7 5 -4 10 3 6 11 10 16 10
6 0 7 -4 4 -10z m295 1 c0 -5 -9 -7 -20 -4 -11 3 -20 7 -20 9 0 2 9 4 20 4 11
0 20 -4 20 -9z m-415 -11 c3 -5 1 -10 -4 -10 -6 0 -11 5 -11 10 0 6 2 10 4 10
3 0 8 -4 11 -10z m206 -3 c-1 -12 -15 -9 -19 4 -3 6 1 10 8 8 6 -3 11 -8 11
-12z m-101 -21 c0 -3 -4 -8 -10 -11 -5 -3 -10 -1 -10 4 0 6 5 11 10 11 6 0 10
-2 10 -4z m354 -27 c-3 -5 -10 -7 -15 -3 -5 3 -7 10 -3 15 3 5 10 7 15 3 5 -3
7 -10 3 -15z m174 -18 c3 -8 -1 -12 -9 -9 -7 2 -15 10 -17 17 -3 8 1 12 9 9 7
-2 15 -10 17 -17z m-793 -31 c-3 -5 -11 -10 -16 -10 -6 0 -7 5 -4 10 3 6 11
10 16 10 6 0 7 -4 4 -10z m-167 -9 c10 -6 10 -10 -2 -20 -8 -7 -19 -10 -25 -7
-12 8 -42 -4 -36 -14 3 -4 -8 -13 -24 -20 -21 -8 -28 -17 -23 -28 5 -15 3 -15
-10 -4 -13 11 -15 19 -6 43 5 16 17 29 25 29 8 0 12 4 8 9 -3 6 12 12 32 14
21 2 40 4 43 5 3 1 11 -2 18 -7z m927 -1 c3 -5 1 -10 -4 -10 -6 0 -11 5 -11
10 0 6 2 10 4 10 3 0 8 -4 11 -10z m-120 -30 c3 -5 1 -10 -4 -10 -6 0 -11 5
-11 10 0 6 2 10 4 10 3 0 8 -4 11 -10z m-328 -15 c17 -12 23 -12 27 -2 5 9 7
9 12 0 3 -7 14 -13 25 -13 13 0 19 -7 19 -24 0 -26 -22 -40 -38 -24 -5 5 -32
10 -60 10 -45 -1 -50 2 -54 23 -4 17 1 26 16 33 28 14 29 14 53 -3z m-97 -15
c8 -5 11 -12 8 -16 -11 -11 -77 -13 -84 -3 -3 5 -10 7 -15 4 -5 -4 -9 -2 -9 4
0 5 15 12 33 14 17 2 37 4 42 5 6 1 17 -2 25 -8z m293 -42 c-2 -5 -11 -8 -19
-8 -8 0 -14 -4 -14 -10 0 -5 -5 -10 -11 -10 -6 0 -8 7 -5 16 5 13 1 15 -19 10
-22 -6 -25 -3 -25 19 0 26 15 34 22 13 3 -9 10 -8 22 5 17 16 18 16 36 -5 10
-13 16 -26 13 -30z m-718 32 c-3 -5 -11 -10 -16 -10 -6 0 -7 5 -4 10 3 6 11
10 16 10 6 0 7 -4 4 -10z m315 -23 c21 6 23 1 14 -34 -5 -17 -13 -23 -33 -22
-17 1 -20 3 -8 6 37 10 7 31 -35 24 -5 0 -8 3 -8 7 0 12 44 31 48 22 2 -4 12
-6 22 -3z m50 -11 c0 -3 -4 -8 -10 -11 -5 -3 -10 -1 -10 4 0 6 5 11 10 11 6 0
10 -2 10 -4z m74 -12 c4 -10 -1 -25 -10 -35 -20 -22 -49 -25 -41 -5 3 7 1 18
-5 24 -8 8 -5 14 13 21 33 13 36 13 43 -5z m151 -23 c-3 -6 -14 -11 -23 -11
-15 1 -15 2 2 15 21 16 32 13 21 -4z m545 8 c0 -6 -9 -13 -21 -16 -15 -4 -17
-8 -8 -14 8 -4 16 -3 20 3 4 6 14 8 24 5 9 -4 13 -11 10 -17 -8 -13 1 -13 26
0 15 9 19 7 19 -6 0 -9 8 -24 18 -33 9 -9 18 -27 20 -40 2 -23 0 -23 -44 -17
-26 3 -55 6 -66 6 -11 0 -16 4 -12 11 4 7 21 9 45 5 24 -4 39 -2 39 4 0 5 -19
10 -41 10 -39 0 -41 2 -37 25 3 14 1 25 -3 25 -5 0 -9 -4 -9 -10 0 -5 -11 -10
-24 -10 -14 0 -28 -4 -31 -10 -3 -5 -10 -10 -16 -10 -5 0 -9 5 -9 10 0 6 7 10
15 10 8 0 15 5 15 10 0 6 7 10 16 10 11 0 14 5 10 16 -4 9 -1 23 5 30 14 17
39 18 39 3z m-80 -14 c0 -8 -4 -15 -10 -15 -5 0 -7 7 -4 15 4 8 8 15 10 15 2
0 4 -7 4 -15z m137 9 c-3 -3 -12 -4 -19 -1 -8 3 -5 6 6 6 11 1 17 -2 13 -5z
m-1197 -24 c0 -5 -8 -10 -17 -10 -15 0 -16 2 -3 10 19 12 20 12 20 0z m495 0
c-3 -5 -11 -10 -16 -10 -6 0 -7 5 -4 10 3 6 11 10 16 10 6 0 7 -4 4 -10z m492
4 c-3 -3 -12 -4 -19 -1 -8 3 -5 6 6 6 11 1 17 -2 13 -5z m-182 -14 c3 -5 1
-10 -4 -10 -6 0 -11 5 -11 10 0 6 2 10 4 10 3 0 8 -4 11 -10z m-355 -15 c-7
-8 -17 -15 -22 -15 -6 0 -5 7 2 15 7 8 17 15 22 15 6 0 5 -7 -2 -15z m90 5 c0
-5 -5 -10 -11 -10 -5 0 -7 5 -4 10 3 6 8 10 11 10 2 0 4 -4 4 -10z m494 -11
c-8 -14 -24 -10 -24 6 0 9 6 12 15 9 8 -4 12 -10 9 -15z m-64 -29 c0 -5 -5
-10 -11 -10 -5 0 -7 5 -4 10 3 6 8 10 11 10 2 0 4 -4 4 -10z m-904 -22 c2 -14
-5 -18 -26 -18 -17 0 -30 -7 -34 -17 -6 -15 -9 -15 -16 -3 -7 12 -13 12 -34 1
-14 -8 -22 -19 -19 -27 3 -9 -2 -14 -16 -14 -56 0 15 81 73 83 20 1 36 5 36
10 0 16 33 2 36 -15z m694 2 c0 -5 -7 -10 -16 -10 -8 0 -12 5 -9 10 3 6 10 10
16 10 5 0 9 -4 9 -10z m330 0 c0 -5 -5 -10 -11 -10 -5 0 -7 5 -4 10 3 6 8 10
11 10 2 0 4 -4 4 -10z m-942 -7 c-10 -2 -26 -2 -35 0 -10 3 -2 5 17 5 19 0 27
-2 18 -5z m-78 -33 c0 -5 -4 -10 -10 -10 -5 0 -10 5 -10 10 0 6 5 10 10 10 6
0 10 -4 10 -10z m660 6 c0 -3 -4 -8 -10 -11 -5 -3 -10 -1 -10 4 0 6 5 11 10
11 6 0 10 -2 10 -4z m478 -18 c-2 -6 -10 -14 -16 -16 -7 -2 -10 2 -6 12 7 18
28 22 22 4z m47 -28 c-11 -18 -22 -11 -19 13 4 33 4 33 15 14 5 -9 7 -22 4
-27z m-1143 -2 c-7 -7 -12 -8 -12 -2 0 6 3 14 7 17 3 4 9 5 12 2 2 -3 -1 -11
-7 -17z m418 12 c0 -5 -5 -10 -11 -10 -5 0 -7 5 -4 10 3 6 8 10 11 10 2 0 4
-4 4 -10z m-613 -26 c-3 -3 -12 -4 -19 -1 -8 3 -5 6 6 6 11 1 17 -2 13 -5z
m118 -14 c3 -5 1 -10 -4 -10 -6 0 -11 5 -11 10 0 6 2 10 4 10 3 0 8 -4 11 -10z
m729 -15 c3 -9 16 -20 28 -25 21 -8 19 -9 -12 -10 -26 0 -31 -3 -20 -10 8 -5
11 -12 8 -15 -4 -4 -16 0 -28 8 -12 8 -31 12 -43 9 -20 -5 -21 -4 -8 12 13 15
13 19 0 27 -10 6 -4 8 19 5 17 -2 32 1 32 5 0 15 17 10 24 -6z m234 -4 c3 -8
-1 -12 -9 -9 -7 2 -15 10 -17 17 -3 8 1 12 9 9 7 -2 15 -10 17 -17z m232 -21
c0 -5 -7 -10 -16 -10 -8 0 -12 5 -9 10 3 6 10 10 16 10 5 0 9 -4 9 -10z
m-1350 -4 c0 -3 -4 -8 -10 -11 -5 -3 -10 -1 -10 4 0 6 5 11 10 11 6 0 10 -2
10 -4z m1109 -5 c7 -5 10 -14 7 -20 -4 -6 -12 -9 -17 -5 -5 3 -7 9 -4 14 3 5
-3 11 -12 13 -13 3 -14 5 -3 6 8 0 21 -3 29 -8z m171 -42 c0 -6 -4 -7 -10 -4
-5 3 -10 11 -10 16 0 6 5 7 10 4 6 -3 10 -11 10 -16z m-905 1 c3 -5 -1 -10
-10 -10 -9 0 -13 5 -10 10 3 6 8 10 10 10 2 0 7 -4 10 -10z m402 -14 c-3 -6
-10 -10 -17 -8 -7 2 -17 -3 -21 -10 -6 -9 -9 -7 -9 7 0 14 7 20 25 21 16 1 24
-3 22 -10z m-740 -32 c-3 -3 -12 -4 -19 -1 -8 3 -5 6 6 6 11 1 17 -2 13 -5z
m293 -4 c0 -5 -4 -10 -10 -10 -5 0 -10 5 -10 10 0 6 5 10 10 10 6 0 10 -4 10
-10z m368 -12 c-2 -13 -10 -23 -18 -23 -8 0 -16 10 -18 23 -3 17 2 22 18 22
16 0 21 -5 18 -22z m99 -6 c-15 -15 -27 -33 -27 -40 0 -7 -4 -12 -10 -12 -18
0 -11 33 12 57 12 13 28 23 37 23 10 0 7 -8 -12 -28z m-462 -12 c-3 -5 -11
-10 -16 -10 -6 0 -7 5 -4 10 3 6 11 10 16 10 6 0 7 -4 4 -10z m315 -511 c0 -6
-4 -7 -10 -4 -5 3 -10 11 -10 16 0 6 5 7 10 4 6 -3 10 -11 10 -16z m-12 -41
c12 -12 17 -48 7 -48 -3 0 -17 7 -31 16 -19 13 -22 20 -13 30 14 17 22 17 37
2z m-271 -58 c-1 -17 -8 -20 -57 -20 -30 0 -79 -3 -107 -6 -37 -5 -53 -3 -53
5 0 7 24 11 68 12 37 1 59 3 50 6 -39 10 -15 23 41 23 54 0 60 -2 58 -20z
m176 -12 c42 -11 77 -22 77 -25 0 -2 -6 -11 -14 -19 -17 -16 -131 -20 -141 -4
-10 15 -35 12 -35 -5 0 -12 -17 -15 -92 -14 -103 0 -170 16 -83 19 39 2 44 4
25 9 -24 7 -24 8 9 15 18 5 66 6 107 5 84 -4 100 10 29 26 -26 6 -43 13 -40
17 9 9 63 0 158 -24z m507 22 c0 -5 -11 -10 -24 -10 -35 0 -78 -18 -71 -30 8
-13 105 -13 125 0 12 8 12 10 -5 11 -11 0 -14 3 -7 6 10 4 10 8 1 19 -10 12
-2 14 50 14 56 0 79 -11 49 -23 -7 -3 13 -6 44 -6 31 -1 60 -5 63 -11 4 -6
-18 -10 -60 -10 -38 0 -64 -4 -60 -9 3 -5 -7 -12 -22 -14 -16 -2 1 -5 37 -7
l65 -2 -45 -9 c-25 -5 -76 -7 -115 -4 -38 3 -110 5 -159 4 -61 -1 -86 3 -82
10 4 6 0 11 -9 11 -64 0 116 58 213 69 6 0 12 -3 12 -9z m-897 -57 c-13 -2
-35 -2 -50 0 -16 2 -5 4 22 4 28 0 40 -2 28 -4z m613 -31 c-9 -8 -26 10 -26
26 1 15 2 15 15 -2 8 -11 13 -21 11 -24z m577 31 c-13 -2 -33 -2 -45 0 -13 2
-3 4 22 4 25 0 35 -2 23 -4z m-1203 -23 c0 -5 -15 -10 -32 -10 -18 0 -43 -3
-55 -6 -13 -4 -23 -2 -23 4 0 12 26 18 78 21 17 0 32 -3 32 -9z m1265 1 c9
-15 -6 -18 -62 -13 -29 2 -50 8 -47 13 7 12 101 12 109 0z"/>
</g>
</svg>
